# xmcd
#
# Track frame offsets: 
#        150
#        19700
#        34508
#        57305
#        72363
#        86025
#        110434
#        127648
#        141873
#        158263
#
# Disc length: 2309 seconds
#
# Revision: 0
# Processed by: cddbd v1.5.2PL0 Copyright (c) Steve Scherf et al.
# Submitted via: ExactAudioCopyFreeDBPlugin 1.0
#
DISCID=7509030a
DTITLE=John Moreland - In the Throes
DYEAR=2013
DGENRE=Blues
TTITLE0=I need you tell me who I am
TTITLE1=Nobody gives a damn about songs anymore
TTITLE2=Blacklist
TTITLE3=Your spell
TTITLE4=3:59 AM
TTITLE5=Break my heart sweetly
TTITLE6=Oh Julia
TTITLE7=God's medicine
TTITLE8=Gospel
TTITLE9=Blues and Kudzu
EXTD=
EXTT0=
EXTT1=
EXTT2=
EXTT3=
EXTT4=
EXTT5=
EXTT6=
EXTT7=
EXTT8=
EXTT9=
PLAYORDER=
